<svg xmlns="http://www.w3.org/2000/svg" width="300" height="600" viewBox="0 0 300 600">
<title>personagem-3</title>
<ellipse cx="150" cy="590" rx="70" ry="7" fill="#000" opacity=".12"/>
<g stroke-linejoin="round" stroke-linecap="round">
<g id="perna-esq"><path d="M136,338 L136.0,553.0" fill="none" stroke="#2b1b17" stroke-width="40.0" stroke-linecap="round" stroke-linejoin="round"/><path d="M136,338 L136.0,553.0" fill="none" stroke="#252b40" stroke-width="32" stroke-linecap="round" stroke-linejoin="round"/><path d="M123,558 L149,558 Q160,566 172,574 Q180,580 174,588 L120,588 Q116,574 123,558 Z" fill="#1f1f24" stroke="#2b1b17" stroke-width="5" stroke-linejoin="round"/><path d="M118,583 L174,583" stroke="#4a4a50" stroke-width="5" stroke-linecap="round"/></g>
<g id="perna-dir"><path d="M164,338 L164.0,553.0" fill="none" stroke="#2b1b17" stroke-width="40.0" stroke-linecap="round" stroke-linejoin="round"/><path d="M164,338 L164.0,553.0" fill="none" stroke="#252b40" stroke-width="32" stroke-linecap="round" stroke-linejoin="round"/><path d="M151,558 L177,558 Q188,566 200,574 Q208,580 202,588 L148,588 Q144,574 151,558 Z" fill="#1f1f24" stroke="#2b1b17" stroke-width="5" stroke-linejoin="round"/><path d="M146,583 L202,583" stroke="#4a4a50" stroke-width="5" stroke-linecap="round"/></g>
<g id="tronco"><path d="M140,142 L140,180 Q152,190 164,180 L164,142 Z" fill="#6a4130" stroke="#2b1b17" stroke-width="5" stroke-linejoin="round"/><path d="M142,160 Q152,172 162,160 L162,172 Q152,182 142,172Z" fill="#4f2f22" opacity=".5"/><path d="M108,178 Q150,164 192,178 Q196,184 196,200 L194,340 Q150,354 106,340 L104,200 Q104,184 108,178 Z" fill="#3b5d96" stroke="#2b1b17" stroke-width="5" stroke-linejoin="round"/><path d="M130,176 Q152,200 174,176 L166,322 L138,322Z" fill="#f7f7f5" stroke="#2b1b17" stroke-width="3.5" stroke-linejoin="round"/><path d="M130,176 L148,200 L138,216 L126,186Z M174,176 L156,200 L166,216 L178,186Z" fill="#fff" stroke="#2b1b17" stroke-width="3" stroke-linejoin="round"/><path d="M140,236 Q152,244 164,236" stroke="#c9c9c9" stroke-width="3" fill="none"/><path d="M140,262 Q152,270 164,262" stroke="#c9c9c9" stroke-width="3" fill="none"/><path d="M126,186 L140,250 L138,330 M178,186 L164,250 L166,330" fill="none" stroke="#2c4878" stroke-width="3"/><path d="M104,324 Q150,338 196,324 L196,340 Q150,354 104,340Z" fill="#252b40" stroke="#2b1b17" stroke-width="3.5"/><rect x="144" y="326" width="16" height="12" rx="2" fill="#aaa" stroke="#2b1b17" stroke-width="2.5"/><circle cx="130" cy="290" r="3" fill="#c9c9c9"/><clipPath id="tc"><path d="M108,178 Q150,164 192,178 Q196,184 196,200 L194,340 Q150,354 106,340 L104,200 Q104,184 108,178 Z"/></clipPath><g clip-path="url(#tc)"><rect x="170" y="150" width="60" height="260" fill="#000" opacity=".13"/><rect x="90" y="150" width="14" height="260" fill="#000" opacity=".07"/></g></g>
<g id="braco-esq"><path d="M106,194 L97,320" fill="none" stroke="#2b1b17" stroke-width="28.3" stroke-linecap="round" stroke-linejoin="round"/><path d="M106,194 L97,320" fill="none" stroke="#6a4130" stroke-width="20.28" stroke-linecap="round" stroke-linejoin="round"/><circle cx="97" cy="320" r="11" fill="#6a4130" stroke="#2b1b17" stroke-width="4.5"/><path d="M106,194 L97,320" fill="none" stroke="#6a4130" stroke-width="20.28" stroke-linecap="round" stroke-linejoin="round"/><path d="M106,194 L98.4,299.8" fill="none" stroke="#2b1b17" stroke-width="34.0" stroke-linecap="round" stroke-linejoin="round"/><path d="M106,194 L98.4,299.8" fill="none" stroke="#3b5d96" stroke-width="26" stroke-linecap="round" stroke-linejoin="round"/><path d="M84,296 L106,304" stroke="#fff" stroke-width="6" stroke-linecap="round"/></g>
<g id="braco-dir"><path d="M194,194 L203,320" fill="none" stroke="#2b1b17" stroke-width="28.3" stroke-linecap="round" stroke-linejoin="round"/><path d="M194,194 L203,320" fill="none" stroke="#6a4130" stroke-width="20.28" stroke-linecap="round" stroke-linejoin="round"/><circle cx="203" cy="320" r="11" fill="#6a4130" stroke="#2b1b17" stroke-width="4.5"/><path d="M194,194 L203,320" fill="none" stroke="#6a4130" stroke-width="20.28" stroke-linecap="round" stroke-linejoin="round"/><path d="M194,194 L201.6,299.8" fill="none" stroke="#2b1b17" stroke-width="34.0" stroke-linecap="round" stroke-linejoin="round"/><path d="M194,194 L201.6,299.8" fill="none" stroke="#3b5d96" stroke-width="26" stroke-linecap="round" stroke-linejoin="round"/><path d="M196,304 L218,296" stroke="#fff" stroke-width="6" stroke-linecap="round"/></g>
<g id="cabeca"><circle cx="104" cy="82" r="22.5" fill="#2b1b17"/><circle cx="100" cy="116" r="23.5" fill="#2b1b17"/><circle cx="104" cy="150" r="22.5" fill="#2b1b17"/><circle cx="108" cy="176" r="17.5" fill="#2b1b17"/><circle cx="200" cy="84" r="22.5" fill="#2b1b17"/><circle cx="204" cy="118" r="23.5" fill="#2b1b17"/><circle cx="200" cy="152" r="22.5" fill="#2b1b17"/><circle cx="196" cy="176" r="17.5" fill="#2b1b17"/><circle cx="116" cy="56" r="23.5" fill="#2b1b17"/><circle cx="150" cy="42" r="27.5" fill="#2b1b17"/><circle cx="186" cy="56" r="23.5" fill="#2b1b17"/><circle cx="104" cy="82" r="20" fill="#1f1819"/><circle cx="100" cy="116" r="21" fill="#1f1819"/><circle cx="104" cy="150" r="20" fill="#1f1819"/><circle cx="108" cy="176" r="15" fill="#1f1819"/><circle cx="200" cy="84" r="20" fill="#1f1819"/><circle cx="204" cy="118" r="21" fill="#1f1819"/><circle cx="200" cy="152" r="20" fill="#1f1819"/><circle cx="196" cy="176" r="15" fill="#1f1819"/><circle cx="116" cy="56" r="21" fill="#1f1819"/><circle cx="150" cy="42" r="25" fill="#1f1819"/><circle cx="186" cy="56" r="21" fill="#1f1819"/><path d="M107,98 Q100,96 100,106 Q101,118 110,118" fill="#6a4130" stroke="#2b1b17" stroke-width="4" stroke-linejoin="round"/><path d="M198,98 Q205,98 204,108 Q202,118 195,118" fill="#6a4130" stroke="#2b1b17" stroke-width="4" stroke-linejoin="round"/><path d="M106,96 Q104,58 152,52 Q200,58 198,96 Q198,128 178,146 Q152,160 126,146 Q106,128 106,96 Z" fill="#6a4130" stroke="#2b1b17" stroke-width="5" stroke-linejoin="round"/><path d="M184,78 Q198,98 192,126 Q186,140 172,148 Q190,128 184,78Z" fill="#4f2f22" opacity=".35"/><ellipse cx="125" cy="124" rx="8" ry="5" fill="#d0604f" opacity=".35"/><ellipse cx="182" cy="124" rx="8" ry="5" fill="#d0604f" opacity=".35"/><path d="M107,102 Q100,96 100,108 Q102,120 110,120" fill="#6a4130" opacity="0"/><path d="M104,92 Q102,52 150,48 Q202,52 200,88 Q172,74 150,76 Q124,78 104,92Z" fill="#4aa7dc" stroke="#2b1b17" stroke-width="5" stroke-linejoin="round"/><path d="M110,66 L84,46 Q82,66 96,82 L110,86Z" fill="#4aa7dc" stroke="#2b1b17" stroke-width="5" stroke-linejoin="round"/><path d="M96,60 Q108,64 114,72 M128,60 Q150,58 176,62 M120,76 Q150,68 188,76" stroke="#2f86bb" stroke-width="3.5" fill="none" stroke-linecap="round"/><circle cx="110" cy="112" r="11.5" fill="#2b1b17"/><circle cx="196" cy="112" r="11.5" fill="#2b1b17"/><circle cx="110" cy="112" r="9" fill="#1f1819"/><circle cx="196" cy="112" r="9" fill="#1f1819"/><path d="M122,140 Q154,164 190,130" fill="none" stroke="#4f2f22" stroke-width="0"/><path d="M128,92 Q138,85 148,90" fill="none" stroke="#1a1313" stroke-width="3.6" stroke-linecap="round"/><path d="M162,90 Q171,85 180,92" fill="none" stroke="#1a1313" stroke-width="3.6" stroke-linecap="round"/><ellipse cx="137" cy="104" rx="7.5" ry="8.5" fill="#fff" stroke="#2b1b17" stroke-width="2"/><circle cx="138.8" cy="104.5" r="5.6" fill="#2a160e"/><circle cx="139" cy="104.8" r="3" fill="#120a08"/><circle cx="140.6" cy="102" r="1.8" fill="#fff"/><path d="M128.5,101 Q137,92.0 146.0,100" fill="none" stroke="#2b1b17" stroke-width="3.2" stroke-linecap="round"/><path d="M128.5,101 l-4,-3" stroke="#2b1b17" stroke-width="2.4" stroke-linecap="round"/><ellipse cx="170" cy="104" rx="6.5" ry="8.5" fill="#fff" stroke="#2b1b17" stroke-width="2"/><circle cx="171.8" cy="104.5" r="5.6" fill="#2a160e"/><circle cx="172" cy="104.8" r="3" fill="#120a08"/><circle cx="173.6" cy="102" r="1.8" fill="#fff"/><path d="M162.5,101 Q170,92.0 178.0,100" fill="none" stroke="#2b1b17" stroke-width="3.2" stroke-linecap="round"/><path d="M162.5,101 l-4,-3" stroke="#2b1b17" stroke-width="2.4" stroke-linecap="round"/><path d="M156,114 Q161,122 154,125" fill="none" stroke="#4f2f22" stroke-width="3" stroke-linecap="round"/><path d="M143,132 Q156,142 171,130 Q158,138 143,132Z" fill="#b4574c" stroke="#2b1b17" stroke-width="2.6" stroke-linejoin="round"/><circle cx="107" cy="118" r="4" fill="#f1c232" stroke="#2b1b17" stroke-width="2"/></g>
</g>
</svg>
