<svg xmlns="http://www.w3.org/2000/svg" xmlns:xlink="http://www.w3.org/1999/xlink" viewBox="0 0 1920 1080" width="1920" height="1080" preserveAspectRatio="none">
<defs>
<linearGradient id="wall" x1="0" y1="0" x2="0" y2="1"><stop offset="0" stop-color="#e3d8bf"/><stop offset=".25" stop-color="#ede3c9"/><stop offset="1" stop-color="#e6dbc0"/></linearGradient>
<linearGradient id="ceil" x1="0" y1="0" x2="0" y2="1"><stop offset="0" stop-color="#d4c9ae"/><stop offset="1" stop-color="#e9dfc6"/></linearGradient>
<linearGradient id="flr" x1="0" y1="0" x2="0" y2="1"><stop offset="0" stop-color="#e4e6e9"/><stop offset=".3" stop-color="#f3f4f6"/><stop offset="1" stop-color="#fbfbfc"/></linearGradient>
<linearGradient id="door" x1="0" y1="0" x2="1" y2="0"><stop offset="0" stop-color="#8b5738"/><stop offset="1" stop-color="#7d4b2e"/></linearGradient>
<linearGradient id="wb" x1="0" y1="0" x2="0" y2="1"><stop offset="0" stop-color="#fbfcfd"/><stop offset="1" stop-color="#eceef0"/></linearGradient>
<linearGradient id="glass" x1="0" y1="0" x2="1" y2="1"><stop offset="0" stop-color="#e6f5fb"/><stop offset="1" stop-color="#c4e1ee"/></linearGradient>
<linearGradient id="shadowF" x1="0" y1="0" x2="0" y2="1"><stop offset="0" stop-color="#000" stop-opacity=".18"/><stop offset="1" stop-color="#000" stop-opacity="0"/></linearGradient>
<g id="scene">
<rect width="1920" height="170" fill="url(#ceil)"/>
<rect y="165" width="1920" height="490" fill="url(#wall)"/>
<path d="M0 165H1920" stroke="#b5aa8e" stroke-width="3"/>
<path d="M0 169H1920" stroke="#fff" stroke-opacity=".5" stroke-width="2"/>
<rect y="165" width="1920" height="490" fill="#c9bb98" opacity=".07"/>
<rect y="648" width="1920" height="360" fill="url(#flr)"/>
<path d="M0 652H1920 M0 668H1920 M0 690H1920 M0 718H1920 M0 754H1920 M0 800H1920 M0 856H1920 M0 925H1920 M0 1005H1920 M0 650L0.0 1005 M120 650L83.6 1005 M240 650L172.8 1005 M360 650L272.2 1005 M480 650L385.0 1005 M600 650L512.2 1005 M720 650L652.8 1005 M840 650L803.6 1005 M960 650L960.0 1005 M1080 650L1116.4 1005 M1200 650L1267.2 1005 M1320 650L1407.8 1005 M1440 650L1535.0 1005 M1560 650L1647.8 1005 M1680 650L1747.2 1005 M1800 650L1836.4 1005" stroke="#b9bec4" stroke-width="1.6" fill="none"/>
<path d="M0 650H1920" stroke="#8d8a7e" stroke-width="3"/>
<rect y="1005" width="1920" height="75" fill="#8d8d8d"/><path d="M0 1005H1920" stroke="#5a5a5a" stroke-width="3"/>
<rect y="1006" width="1920" height="8" fill="#000" opacity=".12"/>
<g stroke="#2a2622" stroke-width="3" stroke-linejoin="round"><rect x="1282" y="12" width="50" height="16" fill="#cfcfcf"/><rect x="1292" y="28" width="30" height="22" fill="#9a9a9a"/><path d="M1296 40Q1330 40 1306 66" fill="none" stroke="#222" stroke-width="4"/><rect x="1232" y="50" width="106" height="42" rx="5" fill="#3b3c40"/><rect x="1232" y="50" width="106" height="12" rx="5" fill="#55575b"/><rect x="1240" y="70" width="44" height="6" fill="#1a1a1c"/><circle cx="1317" cy="73" r="7" fill="#222"/></g>
<ellipse cx="1200" cy="14" rx="60" ry="9" fill="#000" opacity=".08"/>
<rect x="150" y="369" width="40" height="66" fill="#e9d58b" stroke="#a89258" stroke-width="3"/><rect x="156" y="376" width="28" height="52" fill="#dbc778"/>
<g stroke="#4a2c18" stroke-width="3.5" stroke-linejoin="round"><rect x="291" y="252" width="276" height="400" fill="#6e4129"/><rect x="299" y="260" width="127" height="392" fill="url(#door)"/><rect x="430" y="260" width="130" height="392" fill="url(#door)"/><rect x="312" y="275" width="100" height="360" fill="none" stroke="#6a3d24" stroke-width="2.5"/><rect x="443" y="275" width="104" height="360" fill="none" stroke="#6a3d24" stroke-width="2.5"/><path d="M408 436H420V452H414V440H408Z" fill="#cfcfd2" stroke="#444" stroke-width="2"/><path d="M460 371H512L520 379V408H460Z" fill="#e9e9ec" stroke="#8a8a90" stroke-width="2"/></g>
<g stroke="#8f979c" stroke-width="3"><rect x="598" y="254" width="260" height="105" fill="#d8dde0"/><rect x="604" y="262" width="56" height="90" fill="url(#glass)"/><rect x="665" y="262" width="56" height="90" fill="url(#glass)"/><rect x="726" y="262" width="62" height="90" fill="url(#glass)"/><rect x="793" y="262" width="58" height="90" fill="url(#glass)"/><rect x="722" y="300" width="14" height="14" fill="#9aa" stroke="#667"/></g>
<path d="M598 360H858" stroke="#000" stroke-opacity=".12" stroke-width="5"/>
<g fill="#eceae4" stroke="#7a7a7a" stroke-width="2"><rect x="955" y="392" width="15" height="25" rx="2"/><rect x="980" y="388" width="14" height="30" rx="2"/><rect x="981" y="570" width="16" height="25" rx="2"/><rect x="1013" y="570" width="16" height="25" rx="2"/></g>
<g stroke="#9a9ea3" stroke-width="3"><rect x="1002" y="270" width="746" height="232" fill="#e3e5e8"/><rect x="1007" y="275" width="736" height="220" fill="url(#wb)" stroke="#c7cacd" stroke-width="2"/><rect x="1002" y="494" width="746" height="9" fill="#cfd2d6"/><rect x="1100" y="486" width="34" height="9" rx="2" fill="#2c2c2c" stroke="#111" stroke-width="2"/></g>
<g stroke="#2a2622" stroke-width="3" stroke-linejoin="round"><path d="M726 535H892V560H726Z" fill="#a8764c"/><rect x="726" y="560" width="166" height="10" fill="#8a5c38"/><rect x="732" y="570" width="10" height="96" fill="#8b5a36"/><rect x="876" y="570" width="10" height="96" fill="#8b5a36"/><rect x="742" y="522" width="36" height="13" fill="#6b4a3a"/><rect x="746" y="516" width="30" height="7" fill="#9a2f2f"/><rect x="862" y="508" width="16" height="27" rx="2" fill="#7fc6a3"/><rect x="878" y="514" width="14" height="21" rx="2" fill="#4cae8a"/><path d="M870 508L874 490M876 508L884 488M868 510L866 494" stroke="#c0392b" stroke-width="3"/></g>
<g stroke="#2a2622" stroke-width="3" stroke-linejoin="round"><rect x="34" y="466" width="130" height="80" rx="4" fill="#26272a"/><rect x="40" y="472" width="118" height="66" fill="#141517" stroke="none"/><path d="M60.0 472.4L105.5 472.4L79.5 522.0L60.0 522.0Z" fill="#fff" opacity=".05" stroke="none"/><path d="M85.0 546H113.0L121.0 560H77.0Z" fill="#303236"/><rect x="65.0" y="558" width="68" height="7" rx="3" fill="#3a3c40"/></g>
<g stroke="#2a2622" stroke-width="3" stroke-linejoin="round"><rect x="165" y="452" width="122" height="80" rx="4" fill="#26272a"/><rect x="171" y="458" width="110" height="66" fill="#141517" stroke="none"/><path d="M189.4 458.4L232.10000000000002 458.4L207.7 508.0L189.4 508.0Z" fill="#fff" opacity=".05" stroke="none"/><path d="M212.0 532H240.0L248.0 546H204.0Z" fill="#303236"/><rect x="192.0" y="544" width="68" height="7" rx="3" fill="#3a3c40"/></g>
<g stroke="#2a2622" stroke-width="3" stroke-linejoin="round"><rect x="352" y="452" width="120" height="22" rx="4" fill="#26272a"/><rect x="358" y="458" width="108" height="8" fill="#141517" stroke="none"/><path d="M376.0 453.76L418.0 453.76L394.0 467.4L376.0 467.4Z" fill="#fff" opacity=".05" stroke="none"/><path d="M398.0 474H426.0L434.0 488H390.0Z" fill="#303236"/><rect x="378.0" y="486" width="68" height="7" rx="3" fill="#3a3c40"/></g>
<g stroke="#2a2622" stroke-width="3" stroke-linejoin="round"><rect x="528" y="452" width="127" height="80" rx="4" fill="#26272a"/><rect x="534" y="458" width="115" height="66" fill="#141517" stroke="none"/><path d="M553.4 458.4L597.85 458.4L572.45 508.0L553.4 508.0Z" fill="#fff" opacity=".05" stroke="none"/><path d="M577.5 532H605.5L613.5 546H569.5Z" fill="#303236"/><rect x="557.5" y="544" width="68" height="7" rx="3" fill="#3a3c40"/></g>
<g stroke="#2a2622" stroke-width="3" stroke-linejoin="round"><rect x="1542" y="452" width="126" height="80" rx="4" fill="#26272a"/><rect x="1548" y="458" width="114" height="66" fill="#141517" stroke="none"/><path d="M1567.2 458.4L1611.3 458.4L1586.1 508.0L1567.2 508.0Z" fill="#fff" opacity=".05" stroke="none"/><path d="M1591.0 532H1619.0L1627.0 546H1583.0Z" fill="#303236"/><rect x="1571.0" y="544" width="68" height="7" rx="3" fill="#3a3c40"/></g>
<g stroke="#2a2622" stroke-width="3" stroke-linejoin="round"><rect x="1720" y="452" width="124" height="22" rx="4" fill="#26272a"/><rect x="1726" y="458" width="112" height="8" fill="#141517" stroke="none"/><path d="M1744.8 453.76L1788.2 453.76L1763.4 467.4L1744.8 467.4Z" fill="#fff" opacity=".05" stroke="none"/><path d="M1768.0 474H1796.0L1804.0 488H1760.0Z" fill="#303236"/><rect x="1748.0" y="486" width="68" height="7" rx="3" fill="#3a3c40"/></g>
<g stroke="#2a2622" stroke-width="3" stroke-linejoin="round"><rect x="1790" y="466" width="130" height="80" rx="4" fill="#26272a"/><rect x="1796" y="472" width="118" height="66" fill="#141517" stroke="none"/><path d="M1816.0 472.4L1861.5 472.4L1835.5 522.0L1816.0 522.0Z" fill="#fff" opacity=".05" stroke="none"/><path d="M1841.0 546H1869.0L1877.0 560H1833.0Z" fill="#303236"/><rect x="1821.0" y="558" width="68" height="7" rx="3" fill="#3a3c40"/></g>
<g stroke="#2a2622" stroke-width="3" stroke-linejoin="round"><rect x="1900" y="466" width="130" height="80" rx="4" fill="#26272a"/><rect x="1906" y="472" width="118" height="66" fill="#141517" stroke="none"/><path d="M1926.0 472.4L1971.5 472.4L1945.5 522.0L1926.0 522.0Z" fill="#fff" opacity=".05" stroke="none"/><path d="M1951.0 546H1979.0L1987.0 560H1943.0Z" fill="#303236"/><rect x="1931.0" y="558" width="68" height="7" rx="3" fill="#3a3c40"/></g>
<g stroke="#2a2622" stroke-width="3" stroke-linejoin="round"><rect x="504.96" y="607" width="16" height="175" fill="#34353a"/><path d="M474.96 782H562.96V797H474.96Z" fill="#2e2f33"/><rect x="673.04" y="607" width="16" height="175" fill="#34353a"/><path d="M643.04 782H731.04V797H643.04Z" fill="#2e2f33"/><path d="M518 551H714L700 585H488Z" fill="#e4d6b3"/><rect x="488" y="585" width="212" height="22" fill="#cdbd96"/><path d="M492 593H696" stroke="#b9a97f" stroke-width="2"/></g>
<g stroke="#2a2622" stroke-width="3" stroke-linejoin="round"><rect x="1524.4" y="607" width="16" height="175" fill="#34353a"/><path d="M1494.4 782H1582.4V797H1494.4Z" fill="#2e2f33"/><rect x="1686.6" y="607" width="16" height="175" fill="#34353a"/><path d="M1656.6 782H1744.6V797H1656.6Z" fill="#2e2f33"/><path d="M1538 551H1727L1713 585H1508Z" fill="#e4d6b3"/><rect x="1508" y="585" width="205" height="22" fill="#cdbd96"/><path d="M1512 593H1709" stroke="#b9a97f" stroke-width="2"/></g>
<g stroke="#2a2622" stroke-width="3" stroke-linejoin="round"><rect x="528" y="452" width="127" height="80" rx="4" fill="#26272a"/><rect x="534" y="458" width="115" height="66" fill="#141517" stroke="none"/><path d="M553.4 458.4L597.85 458.4L572.45 508.0L553.4 508.0Z" fill="#fff" opacity=".05" stroke="none"/><path d="M577.5 532H605.5L613.5 546H569.5Z" fill="#303236"/><rect x="557.5" y="544" width="68" height="7" rx="3" fill="#3a3c40"/></g>
<g stroke="#2a2622" stroke-width="3" stroke-linejoin="round"><rect x="28.32" y="659" width="16" height="175" fill="#34353a"/><path d="M-1.6799999999999997 834H86.32V849H-1.6799999999999997Z" fill="#2e2f33"/><rect x="525.6800000000001" y="659" width="16" height="175" fill="#34353a"/><path d="M495.68000000000006 834H583.6800000000001V849H495.68000000000006Z" fill="#2e2f33"/><path d="M10 591H598L584 625H-20Z" fill="#e4d6b3"/><rect x="-20" y="625" width="604" height="34" fill="#cdbd96"/><path d="M-16 633H580" stroke="#b9a97f" stroke-width="2"/></g>
<g stroke="#2a2622" stroke-width="3" stroke-linejoin="round"><rect x="1645.6" y="659" width="16" height="175" fill="#34353a"/><path d="M1615.6 834H1703.6V849H1615.6Z" fill="#2e2f33"/><rect x="2072.4" y="659" width="16" height="175" fill="#34353a"/><path d="M2042.4 834H2130.4V849H2042.4Z" fill="#2e2f33"/><path d="M1634 591H2138L2124 625H1604Z" fill="#e4d6b3"/><rect x="1604" y="625" width="520" height="34" fill="#cdbd96"/><path d="M1608 633H2120" stroke="#b9a97f" stroke-width="2"/></g>
<rect x="540" y="545" width="90" height="20" fill="#2d2f33" stroke="#2a2622" stroke-width="3"/><rect x="546" y="550" width="45.0" height="3" fill="#555"/>
<rect x="1560" y="545" width="90" height="20" fill="#2d2f33" stroke="#2a2622" stroke-width="3"/><rect x="1566" y="550" width="45.0" height="3" fill="#555"/>
<rect x="150" y="572" width="70" height="14" fill="#2d2f33" stroke="#2a2622" stroke-width="3"/><rect x="156" y="577" width="35.0" height="3" fill="#555"/>
<rect x="380" y="572" width="70" height="14" fill="#2d2f33" stroke="#2a2622" stroke-width="3"/><rect x="386" y="577" width="35.0" height="3" fill="#555"/>
<g stroke="#2a2622" stroke-width="3" stroke-linejoin="round"><rect x="72" y="473" width="152" height="92" rx="4" fill="#26272a"/><rect x="78" y="479" width="140" height="78" fill="#141517" stroke="none"/><path d="M102.4 480.36L155.60000000000002 480.36L125.19999999999999 537.4L102.4 537.4Z" fill="#fff" opacity=".05" stroke="none"/><path d="M134.0 565H162.0L170.0 579H126.0Z" fill="#303236"/><rect x="114.0" y="577" width="68" height="7" rx="3" fill="#3a3c40"/></g>
<g stroke="#2a2622" stroke-width="3" stroke-linejoin="round"><rect x="346" y="472" width="154" height="92" rx="4" fill="#26272a"/><rect x="352" y="478" width="142" height="78" fill="#141517" stroke="none"/><path d="M376.8 479.36L430.7 479.36L399.9 536.4L376.8 536.4Z" fill="#fff" opacity=".05" stroke="none"/><path d="M409.0 564H437.0L445.0 578H401.0Z" fill="#303236"/><rect x="389.0" y="576" width="68" height="7" rx="3" fill="#3a3c40"/></g>
<g stroke="#2a2622" stroke-width="3" stroke-linejoin="round"><rect x="1668" y="473" width="150" height="90" rx="4" fill="#26272a"/><rect x="1674" y="479" width="138" height="76" fill="#141517" stroke="none"/><path d="M1698.0 480.2L1750.5 480.2L1720.5 536.0L1698.0 536.0Z" fill="#fff" opacity=".05" stroke="none"/><path d="M1729.0 563H1757.0L1765.0 577H1721.0Z" fill="#303236"/><rect x="1709.0" y="575" width="68" height="7" rx="3" fill="#3a3c40"/></g>
<g stroke="#2a2622" stroke-width="3" stroke-linejoin="round"><rect x="1895" y="473" width="152" height="90" rx="4" fill="#26272a"/><rect x="1901" y="479" width="140" height="76" fill="#141517" stroke="none"/><path d="M1925.4 480.2L1978.6 480.2L1948.2 536.0L1925.4 536.0Z" fill="#fff" opacity=".05" stroke="none"/><path d="M1957.0 563H1985.0L1993.0 577H1949.0Z" fill="#303236"/><rect x="1937.0" y="575" width="68" height="7" rx="3" fill="#3a3c40"/></g>
<g stroke="#2a2622" stroke-width="2"><path d="M45 612H141L153 626H37Z" fill="#46474b"/></g><ellipse cx="185" cy="620" rx="14" ry="6" fill="#3a3b3f" stroke="#2a2622" stroke-width="2"/>
<g stroke="#2a2622" stroke-width="2"><path d="M1660 600H1756L1768 614H1652Z" fill="#46474b"/></g><ellipse cx="1800" cy="608" rx="14" ry="6" fill="#3a3b3f" stroke="#2a2622" stroke-width="2"/>
<g stroke="#101010" stroke-width="3.5" stroke-linejoin="round" stroke-linecap="round"><path d="M172.0 723.4L148.0 820M196.0 723.4L184.0 820M277.0 728.0L289.0 820M253.0 728.0L250.0 820" fill="none" stroke-width="5.0"/><path d="M157.0 601.5Q220.0 580.8 274.0 613.0L268.0 716.5Q212.5 732.6 166.0 705.0Z" fill="#2a2a2c"/><path d="M166.0 613.0Q220.0 594.6 265.0 622.2" stroke="#555" fill="none" stroke-width="3"/><path d="M160.0 723.4L280.0 723.4L298.0 741.8L148.0 741.8Z" fill="#343436"/><path d="M220.0 716.5V723.4" stroke-width="5.0"/></g>
<g stroke="#101010" stroke-width="3.5" stroke-linejoin="round" stroke-linecap="round"><path d="M339.0 723.4L315.0 820M363.0 723.4L351.0 820M444.0 728.0L456.0 820M420.0 728.0L417.0 820" fill="none" stroke-width="5.0"/><path d="M324.0 601.5Q387.0 580.8 441.0 613.0L435.0 716.5Q379.5 732.6 333.0 705.0Z" fill="#2a2a2c"/><path d="M333.0 613.0Q387.0 594.6 432.0 622.2" stroke="#555" fill="none" stroke-width="3"/><path d="M327.0 723.4L447.0 723.4L465.0 741.8L315.0 741.8Z" fill="#343436"/><path d="M387.0 716.5V723.4" stroke-width="5.0"/></g>
<g stroke="#101010" stroke-width="3.5" stroke-linejoin="round" stroke-linecap="round"><path d="M521.6 667.72L502.4 745M540.8 667.72L531.2 745M605.6 671.4L615.2 745M586.4 671.4L584.0 745" fill="none" stroke-width="4.0"/><path d="M509.6 570.2Q560.0 553.64 603.2 579.4L598.4 662.2Q554.0 675.08 516.8 653.0Z" fill="#2a2a2c"/><path d="M516.8 579.4Q560.0 564.68 596.0 586.76" stroke="#555" fill="none" stroke-width="3"/><path d="M512.0 667.72L608.0 667.72L622.4 682.44L502.4 682.44Z" fill="#343436"/><path d="M560.0 662.2V667.72" stroke-width="4.0"/></g>
<g stroke="#101010" stroke-width="3.5" stroke-linejoin="round" stroke-linecap="round"><path d="M1797.0 708.4L1773.0 805M1821.0 708.4L1809.0 805M1902.0 713.0L1914.0 805M1878.0 713.0L1875.0 805" fill="none" stroke-width="5.0"/><path d="M1782.0 586.5Q1845.0 565.8 1899.0 598.0L1893.0 701.5Q1837.5 717.6 1791.0 690.0Z" fill="#2a2a2c"/><path d="M1791.0 598.0Q1845.0 579.6 1890.0 607.2" stroke="#555" fill="none" stroke-width="3"/><path d="M1785.0 708.4L1905.0 708.4L1923.0 726.8L1773.0 726.8Z" fill="#343436"/><path d="M1845.0 701.5V708.4" stroke-width="5.0"/></g>
<g stroke="#101010" stroke-width="3.5" stroke-linejoin="round" stroke-linecap="round"><path d="M1612.95 657.89L1592.55 740M1633.35 657.89L1623.15 740M1702.2 661.8L1712.4 740M1681.8 661.8L1679.25 740" fill="none" stroke-width="4.2"/><path d="M1600.2 554.275Q1653.75 536.68 1699.65 564.05L1694.55 652.025Q1647.375 665.71 1607.85 642.25Z" fill="#2a2a2c"/><path d="M1607.85 564.05Q1653.75 548.41 1692.0 571.87" stroke="#555" fill="none" stroke-width="3"/><path d="M1602.75 657.89L1704.75 657.89L1720.05 673.53L1592.55 673.53Z" fill="#343436"/><path d="M1653.75 652.025V657.89" stroke-width="4.2"/></g>
<g stroke="#101010" stroke-width="3.5" stroke-linejoin="round" stroke-linecap="round"><path d="M1932.0 703.4L1908.0 800M1956.0 703.4L1944.0 800M2037.0 708.0L2049.0 800M2013.0 708.0L2010.0 800" fill="none" stroke-width="5.0"/><path d="M1917.0 581.5Q1980.0 560.8 2034.0 593.0L2028.0 696.5Q1972.5 712.6 1926.0 685.0Z" fill="#2a2a2c"/><path d="M1926.0 593.0Q1980.0 574.6 2025.0 602.2" stroke="#555" fill="none" stroke-width="3"/><path d="M1920.0 703.4L2040.0 703.4L2058.0 721.8L1908.0 721.8Z" fill="#343436"/><path d="M1980.0 696.5V703.4" stroke-width="5.0"/></g>
<rect y="650" width="1920" height="40" fill="url(#shadowF)"/>
</g>
</defs>
<rect width="1920" height="1080" fill="#888"/>
<use xlink:href="#scene"/>
<use xlink:href="#scene" x="-1920"/>
<use xlink:href="#scene" x="1920"/>
</svg>
